<svg width="100" height="115" xmlns="http://www.w3.org/2000/svg" xmlns:xlink="http://www.w3.org/1999/xlink" xml:space="preserve" overflow="hidden"><defs><clipPath id="clip0"><rect x="171" y="153" width="100" height="115"/></clipPath><clipPath id="clip1"><rect x="180" y="170" width="82" height="81"/></clipPath><clipPath id="clip2"><rect x="180" y="170" width="82" height="81"/></clipPath><clipPath id="clip3"><rect x="180" y="170" width="82" height="81"/></clipPath></defs><g clip-path="url(#clip0)" transform="translate(-171 -153)"><path d="M284.177 164.557 235.127 136.359 235.127 79.4639 284.177 51.2658 333.228 79.4639 333.228 136.359Z" stroke="#FFFFFF" stroke-width="1.26582" stroke-miterlimit="8" fill="#B2D8E4" fill-rule="evenodd" transform="matrix(1 0 0 1.0011 -63.1772 102.311)"/><g clip-path="url(#clip1)"><g clip-path="url(#clip2)"><g clip-path="url(#clip3)"><path d="M64.6136 41.3538C68.7753 41.3538 72.149 37.9801 72.149 33.818 72.149 29.6563 68.7753 26.2825 64.6136 26.2825 60.4519 26.2825 57.0778 29.6563 57.0778 33.818 57.0788 34.1968 57.1095 34.5747 57.1699 34.9484L48.4538 38.5905C46.8908 35.8323 44.1579 33.9342 41.0272 33.4329L41.0272 24.0721C45.0848 23.1472 47.6247 19.108 46.6997 15.0503 45.775 10.9926 41.7358 8.45285 37.6782 9.37772 33.6203 10.3025 31.0806 14.3417 32.0054 18.3994 32.649 21.2234 34.8541 23.4284 37.6782 24.0721L37.6782 33.4247C34.5766 33.9263 31.8652 35.7953 30.2931 38.5152L21.8114 34.9734C22.4472 30.8606 19.6285 27.0109 15.5155 26.3751 11.4026 25.7393 7.55297 28.558 6.91712 32.6709 6.28127 36.7839 9.1 40.6335 13.2129 41.2693 16.0565 41.7089 18.9022 40.4908 20.5471 38.1301L29.1042 41.6301C28.4974 44.5608 29.1806 47.6111 30.9797 50.0028L24.0553 56.9943C20.5135 54.8089 15.8706 55.9082 13.6852 59.45 11.4997 62.9918 12.5992 67.6348 16.141 69.8203 19.6828 72.0057 24.3256 70.906 26.5111 67.3646 28.0385 64.8889 28.005 61.7557 26.4248 59.3136L33.3994 52.3389C36.9813 54.8272 41.7323 54.8272 45.3139 52.3389L52.2886 59.3051C50.0256 62.7981 51.0228 67.4639 54.5155 69.7269 58.0082 71.9899 62.6744 70.9927 64.9373 67.5 67.2003 64.0073 66.2032 59.3411 62.7104 57.0785 60.2509 55.4848 57.0905 55.4617 54.6079 57.0193L47.7256 50.0446C49.1066 48.2367 49.8541 46.0237 49.8522 43.7484 49.849 43.0655 49.782 42.3842 49.6513 41.7136L58.4513 38.1133C59.8532 40.1345 62.1538 41.3443 64.6136 41.3538ZM64.6136 29.2047C65.7835 29.2047 66.732 30.153 66.732 31.323 66.732 32.493 65.7835 33.4415 64.6136 33.4415 63.4437 33.4415 62.4953 32.493 62.4953 31.323 62.4953 31.3202 62.4953 31.3174 62.4953 31.3146 62.5044 30.1498 63.4487 29.2091 64.6136 29.2047ZM60.4272 36.0703C60.4354 35.7411 60.5924 35.4332 60.8541 35.2332 61.4801 34.7864 62.1763 34.4468 62.9139 34.2285 63.4801 34.0639 64.0658 33.9766 64.6554 33.9687 65.2456 33.9696 65.8323 34.057 66.3971 34.2285 67.1427 34.4256 67.8424 34.7668 68.4566 35.2332 68.7136 35.4364 68.8668 35.743 68.8753 36.0703L68.8753 37.6782 60.3854 37.6782ZM14.4181 29.2047C15.5881 29.2047 16.5365 30.153 16.5365 31.323 16.5365 32.493 15.588 33.4415 14.4181 33.4415 13.2482 33.4415 12.2998 32.493 12.2998 31.323 12.2998 31.3202 12.2998 31.3174 12.2998 31.3146 12.3085 30.1659 13.2278 29.2318 14.3763 29.2047ZM18.6046 37.6864 10.1479 37.6864 10.1479 36.0703C10.1562 35.7411 10.3132 35.4332 10.575 35.2332 11.2011 34.7864 11.8971 34.4468 12.6347 34.2285 13.2009 34.0639 13.7867 33.9766 14.3763 33.9687 14.9664 33.9696 15.5531 34.057 16.1178 34.2285 16.8634 34.4256 17.5632 34.7668 18.1775 35.2332 18.4343 35.4364 18.5876 35.743 18.5962 36.0703ZM20.0949 58.7943C21.2603 58.7943 22.2049 59.7389 22.2049 60.9044 22.2049 62.0696 21.2603 63.0142 20.0949 63.0142 18.9296 63.0142 17.985 62.0696 17.985 60.9044 17.985 59.7389 18.9296 58.7943 20.0949 58.7943ZM24.2814 67.2677 15.9085 67.2677 15.9085 65.6519C15.9159 65.3241 16.0695 65.0171 16.3272 64.8146 16.9527 64.3687 17.649 64.032 18.3869 63.818 18.9416 63.6516 19.5159 63.5589 20.0949 63.5418 20.6855 63.5446 21.2724 63.6351 21.8365 63.8098 22.5819 64.0035 23.2817 64.3421 23.8962 64.806 24.1539 65.0089 24.3074 65.3158 24.3149 65.6434ZM39.3525 12.1156C40.518 12.1156 41.4627 13.0603 41.4627 14.2255 41.4627 15.3909 40.5177 16.3355 39.3525 16.3355 38.1905 16.3355 37.2472 15.3959 37.2427 14.2339 37.238 13.0687 38.1788 12.1202 39.3443 12.1156 39.3468 12.1156 39.3497 12.1156 39.3525 12.1156ZM35.1661 20.5889 35.1661 18.973C35.1737 18.6453 35.3272 18.3382 35.5848 18.1357 36.2104 17.6898 36.9066 17.353 37.6446 17.1393 38.1994 16.9728 38.7737 16.8799 39.3525 16.863 39.943 16.8658 40.5301 16.9561 41.094 17.1309 41.8396 17.3245 42.5392 17.6631 43.1538 18.1273 43.4114 18.3298 43.5652 18.637 43.5725 18.9646L43.5725 20.5806ZM39.3525 37.3348C40.9756 37.3301 42.2953 38.6421 42.2997 40.2652 42.3044 41.8883 40.9924 43.2079 39.3693 43.2123 37.7462 43.2171 36.4266 41.9051 36.4222 40.282 36.4222 40.2791 36.4222 40.2763 36.4222 40.2737 36.4222 38.6538 37.7329 37.3392 39.3525 37.3348ZM45.2136 49.1155 33.4915 49.1155 33.4915 46.8883C33.5028 46.4297 33.7174 46 34.0775 45.7158 34.9465 45.0918 35.9149 44.619 36.9411 44.3177 37.725 44.0867 38.5358 43.9601 39.3525 43.9408 40.1721 43.9434 40.9873 44.0646 41.7725 44.3009 42.8108 44.5706 43.7845 45.0462 44.6358 45.6994 44.9975 45.9886 45.2095 46.4253 45.2136 46.8883ZM58.6101 58.7943C59.7756 58.7943 60.7203 59.7389 60.7203 60.9044 60.7203 62.0696 59.7756 63.0142 58.6101 63.0142 57.4449 63.0142 56.5003 62.0696 56.5003 60.9044 56.5003 59.7389 57.4449 58.7943 58.6101 58.7943ZM54.4237 65.6519C54.4313 65.3241 54.5848 65.0171 54.8424 64.8146 55.468 64.3687 56.1642 64.032 56.9022 63.818 57.457 63.6516 58.0313 63.5589 58.6101 63.5418 59.2006 63.5446 59.7877 63.6351 60.3519 63.8098 61.0972 64.0035 61.7972 64.3421 62.4114 64.806 62.6693 65.0089 62.8228 65.3158 62.8301 65.6434L62.8301 67.2595 54.4237 67.2595Z" transform="matrix(-1 -8.75191e-08 -8.74228e-08 1.0011 261.19 170.107)"/></g></g></g></g></svg>