<svg width="100" height="115" xmlns="http://www.w3.org/2000/svg" xmlns:xlink="http://www.w3.org/1999/xlink" xml:space="preserve" overflow="hidden"><defs><clipPath id="clip0"><rect x="449" y="153" width="100" height="115"/></clipPath><clipPath id="clip1"><rect x="455" y="173" width="82" height="81"/></clipPath><clipPath id="clip2"><rect x="455" y="173" width="82" height="81"/></clipPath><clipPath id="clip3"><rect x="455" y="173" width="82" height="81"/></clipPath></defs><g clip-path="url(#clip0)" transform="translate(-449 -153)"><path d="M220.364 277.39 171.236 249.148 171.236 192.528 220.364 164.286 269.492 192.528 269.492 249.148Z" stroke="#FFFFFF" stroke-width="1.26374" stroke-miterlimit="8" fill="#92A5BD" fill-rule="evenodd" transform="matrix(1.00165 0 0 1 278.114 -10.3379)"/><g clip-path="url(#clip1)"><g clip-path="url(#clip2)"><g clip-path="url(#clip3)"><path d="M39.3714 16.4674C37.4486 16.4674 35.8604 18.0556 35.8604 19.9782 35.8604 21.9008 37.4486 23.489 39.3714 23.489 41.2938 23.489 42.882 21.9008 42.882 19.9782 42.882 18.0556 41.2938 16.4674 39.3714 16.4674Z" transform="matrix(-1.00165 -8.74228e-08 -8.75671e-08 1 536.342 173.22)"/><path d="M32.3498 36.9472C32.3498 38.8861 30.7778 40.4579 28.8389 40.4579 26.8999 40.4579 25.328 38.8861 25.328 36.9472 25.328 35.0083 26.8999 33.4362 28.8389 33.4362 30.7778 33.4362 32.3498 35.0083 32.3498 36.9472Z" transform="matrix(-1.00165 -8.74228e-08 -8.75671e-08 1 536.342 173.22)"/><path d="M49.3186 21.1485 47.229 22.1516C47.0615 22.8203 46.7273 23.4054 46.393 23.9906L47.1453 26.164 45.4733 27.8358 43.3 27.0834C42.7149 27.4178 42.1298 27.6686 41.461 27.8358L40.4579 29.8419 38.1174 29.8419 37.1144 27.7522C36.4455 27.585 35.8604 27.3342 35.2753 26.9999L33.102 27.7522 31.4302 26.0804 32.1826 23.907C31.848 23.3218 31.5972 22.7367 31.4302 22.068L29.3404 21.0649 29.3404 18.7244 31.4302 17.7213C31.5972 17.0525 31.848 16.4674 32.1826 15.8823L31.5138 13.7089 33.1857 12.0371 35.359 12.7894C35.9441 12.455 36.5292 12.2043 37.1981 12.0371L38.2012 9.94731 40.5416 9.94731 41.5447 11.9535C42.2135 12.1207 42.7986 12.3714 43.3838 12.7058L45.5571 11.9535 47.229 13.6253 46.4764 15.7987C46.811 16.3838 47.0615 16.9689 47.229 17.6377L49.3186 18.6408 49.3186 21.1485ZM38.7863 38.1174 36.6964 39.1205C36.5292 39.7894 36.2784 40.3745 35.9441 40.9596L36.6127 43.1329 34.941 44.8048 32.7677 44.0523C32.1826 44.3868 31.5972 44.6377 30.9286 44.8048L30.0091 46.811 27.6686 46.811 26.6655 44.7211C25.9968 44.554 25.4116 44.3031 24.8265 43.9689L22.6531 44.6377 20.9813 42.9658 21.7336 40.7925C21.3993 40.2073 21.1485 39.6219 20.9813 38.9534L18.8915 37.9503 18.8915 35.6096 20.9813 34.6065C21.1485 33.938 21.3993 33.3528 21.7336 32.7677L20.9813 30.5943 22.6531 28.9224 24.8265 29.6748C25.4116 29.3404 25.9968 29.0896 26.6655 28.9224L27.6686 26.8327 30.0927 26.8327 31.0958 28.9224C31.7646 29.0896 32.3498 29.3404 32.9349 29.6748L35.1082 28.9224 36.7801 30.5943 36.0275 32.7677C36.3621 33.3528 36.6127 33.938 36.7801 34.6065L38.8697 35.6096 38.7863 38.1174 38.7863 38.1174ZM67.7088 41.2104 61.9408 31.1794 61.9408 30.7615C62.2753 21.5664 57.5942 12.9566 49.6531 8.19192 41.7118 3.51082 31.9318 3.51082 23.9906 8.19192 16.0494 12.873 11.3684 21.5664 11.7027 30.7615 11.7027 38.7026 15.2971 46.1422 21.5664 50.9905L21.5664 72.1388 47.9812 72.1388 47.9812 62.1079 52.077 62.1079C54.752 62.1079 57.2599 61.0214 59.0986 59.1823 60.9377 57.2599 61.9408 54.752 61.9408 52.077L61.9408 47.0615 65.6189 47.0615C67.7922 46.811 69.7146 44.3031 67.7088 41.2104Z" transform="matrix(-1.00165 -8.74228e-08 -8.75671e-08 1 536.342 173.22)"/></g></g></g></g></svg>