<svg id="visual" viewBox="0 0 900 600" width="900" height="600" xmlns="http://www.w3.org/2000/svg" xmlns:xlink="http://www.w3.org/1999/xlink" version="1.1"><rect x="0" y="0" width="900" height="600" fill="#001122"></rect><defs><linearGradient id="grad1_0" x1="33.3%" y1="0%" x2="100%" y2="100%"><stop offset="20%" stop-color="#3eb1c8" stop-opacity="1"></stop><stop offset="80%" stop-color="#3eb1c8" stop-opacity="1"></stop></linearGradient></defs><defs><linearGradient id="grad1_1" x1="33.3%" y1="0%" x2="100%" y2="100%"><stop offset="20%" stop-color="#3eb1c8" stop-opacity="1"></stop><stop offset="80%" stop-color="#1f5a75" stop-opacity="1"></stop></linearGradient></defs><defs><linearGradient id="grad1_2" x1="33.3%" y1="0%" x2="100%" y2="100%"><stop offset="20%" stop-color="#001122" stop-opacity="1"></stop><stop offset="80%" stop-color="#1f5a75" stop-opacity="1"></stop></linearGradient></defs><defs><linearGradient id="grad2_0" x1="0%" y1="0%" x2="66.7%" y2="100%"><stop offset="20%" stop-color="#3eb1c8" stop-opacity="1"></stop><stop offset="80%" stop-color="#3eb1c8" stop-opacity="1"></stop></linearGradient></defs><defs><linearGradient id="grad2_1" x1="0%" y1="0%" x2="66.7%" y2="100%"><stop offset="20%" stop-color="#1f5a75" stop-opacity="1"></stop><stop offset="80%" stop-color="#3eb1c8" stop-opacity="1"></stop></linearGradient></defs><defs><linearGradient id="grad2_2" x1="0%" y1="0%" x2="66.7%" y2="100%"><stop offset="20%" stop-color="#1f5a75" stop-opacity="1"></stop><stop offset="80%" stop-color="#001122" stop-opacity="1"></stop></linearGradient></defs><g transform="translate(900, 0)"><path d="M0 486.7C-45.8 456.4 -91.6 426 -130.7 402.3C-169.8 378.6 -202.2 361.4 -252.7 347.9C-303.3 334.3 -372.1 324.3 -393.8 286.1C-415.4 247.9 -389.9 181.5 -397.5 129.2C-405.2 76.8 -446 38.4 -486.7 0L0 0Z" fill="#10344a"></path><path d="M0 324.5C-30.5 304.3 -61.1 284 -87.1 268.2C-113.2 252.4 -134.8 241 -168.5 231.9C-202.2 222.9 -248.1 216.2 -262.5 190.7C-277 165.3 -259.9 121 -265 86.1C-270.1 51.2 -297.3 25.6 -324.5 0L0 0Z" fill="#2c849f"></path><path d="M0 162.2C-15.3 152.1 -30.5 142 -43.6 134.1C-56.6 126.2 -67.4 120.5 -84.2 116C-101.1 111.4 -124 108.1 -131.3 95.4C-138.5 82.6 -130 60.5 -132.5 43.1C-135.1 25.6 -148.7 12.8 -162.2 0L0 0Z" fill="#3eb1c8"></path></g><g transform="translate(0, 600)"><path d="M0 -486.7C46.4 -461.3 92.7 -435.8 134.7 -414.7C176.7 -393.6 214.4 -376.9 261 -359.2C307.5 -341.5 363 -322.9 393.8 -286.1C424.6 -249.3 430.8 -194.4 442.2 -143.7C453.6 -93 470.2 -46.5 486.7 0L0 0Z" fill="#10344a"></path><path d="M0 -324.5C30.9 -307.5 61.8 -290.5 89.8 -276.4C117.8 -262.4 142.9 -251.2 174 -239.5C205 -227.7 242 -215.3 262.5 -190.7C283.1 -166.2 287.2 -129.6 294.8 -95.8C302.4 -62 313.5 -31 324.5 0L0 0Z" fill="#2c849f"></path><path d="M0 -162.2C15.5 -153.8 30.9 -145.3 44.9 -138.2C58.9 -131.2 71.5 -125.6 87 -119.7C102.5 -113.8 121 -107.6 131.3 -95.4C141.5 -83.1 143.6 -64.8 147.4 -47.9C151.2 -31 156.7 -15.5 162.2 0L0 0Z" fill="#3eb1c8"></path></g></svg>