<svg width="100" height="115" xmlns="http://www.w3.org/2000/svg" xmlns:xlink="http://www.w3.org/1999/xlink" xml:space="preserve" overflow="hidden"><defs><clipPath id="clip0"><rect x="588" y="153" width="100" height="115"/></clipPath><clipPath id="clip1"><rect x="597" y="170" width="82" height="81"/></clipPath><clipPath id="clip2"><rect x="597" y="170" width="82" height="81"/></clipPath><clipPath id="clip3"><rect x="597" y="170" width="82" height="81"/></clipPath></defs><g clip-path="url(#clip0)" transform="translate(-588 -153)"><path d="M347.054 277.39 297.926 249.148 297.926 192.528 347.054 164.286 396.181 192.528 396.181 249.148Z" stroke="#FFFFFF" stroke-width="1.26374" stroke-miterlimit="8" fill="#126084" fill-rule="evenodd" transform="matrix(1.00165 0 0 1 290.215 -10.3379)"/><g clip-path="url(#clip1)"><g clip-path="url(#clip2)"><g clip-path="url(#clip3)"><path d="M-28.4209-20.0618-33.4362-20.0618-33.4362-32.6006-28.4209-32.6006Z" transform="matrix(1.0056 8.7767e-08 8.75671e-08 -1 678.19 170.376)"/><path d="M-55.17-35.9441-25.0773-35.9441-25.0773-16.7182-55.17-16.7182-55.17-35.9441ZM-40.1236-57.6779C-35.5262-57.6779-31.7646-53.916-31.7646-49.3186-31.7646-44.7211-35.5262-40.9596-40.1236-40.9596-44.7211-40.9596-48.4826-44.7211-48.4826-49.3186-48.4826-53.916-44.7211-57.6779-40.1236-57.6779ZM-65.2009-11.7027-55.17-11.7027-25.0773-11.7027-20.0618-11.7027-11.7027-20.0618-11.7027-65.2009C-11.7027-67.0399-13.2074-68.5444-15.0464-68.5444L-65.2009-68.5444C-67.0399-68.5444-68.5444-67.0399-68.5444-65.2009L-68.5444-15.0464C-68.5444-13.2074-67.0399-11.7027-65.2009-11.7027Z" transform="matrix(1.0056 8.7767e-08 8.75671e-08 -1 678.19 170.376)"/><path d="M-37.6161-46.811-42.6315-46.811-42.6315-51.8265-37.6161-51.8265Z" transform="matrix(1.0056 8.7767e-08 8.75671e-08 -1 678.19 170.376)"/></g></g></g></g></svg>