<svg width="100" height="115" xmlns="http://www.w3.org/2000/svg" xmlns:xlink="http://www.w3.org/1999/xlink" xml:space="preserve" overflow="hidden"><defs><clipPath id="clip0"><rect x="310" y="153" width="100" height="115"/></clipPath><clipPath id="clip1"><rect x="319" y="170" width="82" height="81"/></clipPath><clipPath id="clip2"><rect x="319" y="170" width="82" height="81"/></clipPath><clipPath id="clip3"><rect x="319" y="170" width="82" height="81"/></clipPath></defs><g clip-path="url(#clip0)" transform="translate(-310 -153)"><path d="M90.989 277.39 42.0192 249.238 42.0192 192.437 90.989 164.286 139.959 192.437 139.959 249.238Z" stroke="#FFFFFF" stroke-width="1.26374" stroke-miterlimit="8" fill="#BDBCBC" fill-rule="evenodd" transform="matrix(1.00165 0 0 1 268.861 -10.3379)"/><g clip-path="url(#clip1)"><g clip-path="url(#clip2)"><g clip-path="url(#clip3)"><path d="M67.7088 61.0716C67.7088 65.6881 63.9662 69.4306 59.3495 69.4306 54.7331 69.4306 50.9905 65.6881 50.9905 61.0716 50.9905 56.4549 54.7331 52.7123 59.3495 52.7123 63.9662 52.7123 67.7088 56.4549 67.7088 61.0716Z" transform="matrix(-1.00165 -8.74228e-08 -8.75671e-08 1 400.19 170.376)"/><path d="M28.4209 20.112C28.4209 24.7286 24.6784 28.4711 20.0618 28.4711 15.4452 28.4711 11.7027 24.7286 11.7027 20.112 11.7027 15.4954 15.4452 11.7529 20.0618 11.7529 24.6784 11.7529 28.4209 15.4954 28.4209 20.112Z" transform="matrix(-1.00165 -8.74228e-08 -8.75671e-08 1 400.19 170.376)"/><path d="M59.3495 29.2902 50.1627 20.1036 59.3495 11.2179 68.5362 20.1036 59.3495 29.2902Z" transform="matrix(-1.00165 -8.74228e-08 -8.75671e-08 1 400.19 170.376)"/><path d="M11.7027 52.6624 28.4209 52.6624 28.4209 69.3804 11.7027 69.3804Z" transform="matrix(-1.00165 -8.74228e-08 -8.75671e-08 1 400.19 170.376)"/><path d="M47.5383 59.3997 35.1082 59.3997 36.7801 57.7278C37.3526 57.1553 37.3526 56.2271 36.7801 55.6549 36.2076 55.0825 35.2794 55.0825 34.7069 55.6549L30.3184 60.0433C30.0482 60.321 29.8955 60.6922 29.8921 61.0798 29.8937 61.4678 30.0467 61.8397 30.3184 62.1164L34.7069 66.5048C35.2816 67.0772 36.2117 67.0756 36.7842 66.5006 37.3567 65.926 37.3548 64.9958 36.7801 64.4234L35.1082 62.7518 47.5383 62.7518Z" transform="matrix(-1.00165 -8.74228e-08 -8.75671e-08 1 400.19 170.376)"/><path d="M48.1067 19.0336 43.718 14.6451C43.1455 14.075 42.2192 14.0769 41.6493 14.6493 41.079 15.2217 41.0809 16.148 41.6534 16.7182L43.3253 18.39 31.7646 18.39 31.7646 21.7336 43.3335 21.7336 41.6616 23.4054C41.0847 23.9733 41.0771 24.9014 41.6448 25.4785 42.2129 26.0556 43.1408 26.063 43.718 25.4952L48.1067 21.1067C48.676 20.533 48.676 19.6073 48.1067 19.0336Z" transform="matrix(-1.00165 -8.74228e-08 -8.75671e-08 1 400.19 170.376)"/><path d="M64.7997 44.1862C64.2259 43.6166 63.3002 43.6166 62.7265 44.1862L61.0549 45.8578 61.0549 32.6006 57.6779 32.6006 57.6779 45.8746 56.0059 44.203C55.4335 43.6327 54.5072 43.6346 53.9369 44.2071 53.367 44.7795 53.3688 45.7059 53.9413 46.2758L58.3214 50.6644C58.8952 51.2341 59.8209 51.2341 60.3943 50.6644L64.7829 46.2758C65.3645 45.7087 65.3762 44.777 64.8088 44.1954 64.806 44.1922 64.8028 44.1894 64.7997 44.1862Z" transform="matrix(-1.00165 -8.74228e-08 -8.75671e-08 1 400.19 170.376)"/></g></g></g></g></svg>