<svg width="100" height="115" xmlns="http://www.w3.org/2000/svg" xmlns:xlink="http://www.w3.org/1999/xlink" xml:space="preserve" overflow="hidden"><defs><clipPath id="clip0"><rect x="32" y="153" width="100" height="115"/></clipPath><clipPath id="clip1"><rect x="44" y="170" width="82" height="81"/></clipPath><clipPath id="clip2"><rect x="44" y="170" width="82" height="81"/></clipPath><clipPath id="clip3"><rect x="44" y="170" width="82" height="81"/></clipPath></defs><g clip-path="url(#clip0)" transform="translate(-32 -153)"><path d="M157.278 164.557 108.228 136.359 108.228 79.4639 157.278 51.2658 206.329 79.4639 206.329 136.359Z" stroke="#FFFFFF" stroke-width="1.26582" stroke-miterlimit="8" fill="#36B1C8" fill-rule="evenodd" transform="matrix(1 0 0 1.0011 -75.2785 102.311)"/><g clip-path="url(#clip1)"><g clip-path="url(#clip2)"><g clip-path="url(#clip3)"><path d="M-63.704-63.704-21.7935-63.704-21.7935-16.7642-63.704-16.7642-63.704-63.704ZM-16.7642-11.735-16.7642-16.7642-15.6746-16.7642C-14.3334-16.848-13.4114-17.9377-13.4114-19.2789-13.3275-20.62-14.3334-21.7097-15.6746-21.7935L-16.7642-21.7935-16.7642-25.1464-15.6746-25.1464C-14.2496-25.1464-13.1599-26.236-13.1599-27.661-13.1599-29.0859-14.2496-30.1756-15.6746-30.1756L-16.7642-30.1756-16.7642-33.5284-15.6746-33.5284C-14.2496-33.5284-13.1599-34.6182-13.1599-36.0432-13.1599-37.4681-14.2496-38.5576-15.6746-38.5576L-16.7642-38.5576-16.7642-41.9107-15.6746-41.9107C-14.2496-41.9107-13.1599-43.0002-13.1599-44.4252-13.1599-45.8502-14.2496-46.94-15.6746-46.94L-16.7642-46.94-16.7642-50.2927-15.6746-50.2927C-14.2496-50.2927-13.1599-51.3825-13.1599-52.8075-13.1599-54.2322-14.2496-55.322-15.6746-55.322L-16.7642-55.322-16.7642-58.6747-15.6746-58.6747C-14.2496-58.6747-13.1599-59.7645-13.1599-61.1895-13.1599-62.6145-14.2496-63.704-15.6746-63.704L-16.7642-63.704-16.7642-68.7332-68.7332-68.7332-68.7332-11.735-16.7642-11.735Z" transform="matrix(1.00283 8.7767e-08 8.73266e-08 -1 125.354 170.107)"/><path d="M-33.5284-48.6162C-35.3725-48.6162-36.8814-50.1251-36.8814-51.9692-36.8814-53.813-35.3725-55.322-33.5284-55.322-31.6842-55.322-30.1756-53.813-30.1756-51.9692-30.1756-50.1251-31.6842-48.6162-33.5284-48.6162ZM-33.5284-58.6747C-36.8814-58.6747-39.7311-56.1602-40.1502-52.8075-40.5693-49.4544-38.474-46.3532-35.2049-45.515L-35.2049-43.5869C-35.2049-42.665-35.9592-41.9107-36.8814-41.9107L-48.6162-41.9107C-51.3825-41.9107-53.6454-39.6474-53.6454-36.8814L-53.6454-27.4933-55.8247-29.6727C-56.4954-30.3433-57.5013-30.3433-58.1719-29.6727-58.8423-29.0021-58.8423-27.9963-58.1719-27.3257L-53.1427-22.2964C-52.8075-21.9611-52.3884-21.7935-51.9692-21.7935-51.5501-21.7935-51.131-21.9611-50.7955-22.2964L-45.7662-27.3257C-45.0958-27.9963-45.0958-29.0021-45.7662-29.6727-46.4369-30.3433-47.4427-30.3433-48.1134-29.6727L-50.2927-27.4933-50.2927-36.8814C-50.2927-37.8033-49.5384-38.5576-48.6162-38.5576L-36.8814-38.5576C-34.1151-38.5576-31.8521-40.8209-31.8521-43.5869L-31.8521-45.515C-28.583-46.3532-26.4875-49.5384-26.9066-52.8075-27.3257-56.1602-30.1756-58.6747-33.5284-58.6747Z" transform="matrix(1.00283 8.7767e-08 8.73266e-08 -1 125.354 170.107)"/><path d="M-58.1719-45.7662C-57.8368-45.431-57.4176-45.2634-56.9985-45.2634-56.5794-45.2634-56.1602-45.431-55.8247-45.7662L-51.9692-49.622-48.1134-45.7662C-47.4427-45.0958-46.4369-45.0958-45.7662-45.7662-45.0958-46.4369-45.0958-47.4427-45.7662-48.1134L-49.622-51.9692-45.7662-55.8247C-45.0958-56.4954-45.0958-57.5013-45.7662-58.1719-46.4369-58.8423-47.4427-58.8423-48.1134-58.1719L-51.9692-54.3161-55.8247-58.1719C-56.4954-58.8423-57.5013-58.8423-58.1719-58.1719-58.8423-57.5013-58.8423-56.4954-58.1719-55.8247L-54.3161-51.9692-58.1719-48.1134C-58.8423-47.4427-58.8423-46.4369-58.1719-45.7662Z" transform="matrix(1.00283 8.7767e-08 8.73266e-08 -1 125.354 170.107)"/><path d="M-27.3257-34.7018C-27.661-35.0373-28.0801-35.2049-28.4992-35.2049-28.9183-35.2049-29.3374-35.0373-29.6727-34.7018L-33.5284-30.8462-37.3842-34.7018C-38.0549-35.3725-39.0607-35.3725-39.7311-34.7018-40.4017-34.0314-40.4017-33.0256-39.7311-32.3549L-35.8756-28.4992-39.7311-24.6434C-40.4017-23.9728-40.4017-22.967-39.7311-22.2964-39.0607-21.6259-38.0549-21.6259-37.3842-22.2964L-33.5284-26.1522-29.6727-22.2964C-29.0021-21.6259-27.9963-21.6259-27.3257-22.2964-26.6551-22.967-26.6551-23.9728-27.3257-24.6434L-31.1815-28.4992-27.3257-32.3549C-26.6551-33.0256-26.6551-34.0314-27.3257-34.7018Z" transform="matrix(1.00283 8.7767e-08 8.73266e-08 -1 125.354 170.107)"/></g></g></g></g></svg>