<svg id="visual" viewBox="0 0 900 600" width="900" height="600" xmlns="http://www.w3.org/2000/svg" xmlns:xlink="http://www.w3.org/1999/xlink" version="1.1"><rect x="0" y="0" width="900" height="600" fill="#FFFFFF"></rect><defs><linearGradient id="grad1_0" x1="33.3%" y1="0%" x2="100%" y2="100%"><stop offset="20%" stop-color="#3eb1c8" stop-opacity="1"></stop><stop offset="80%" stop-color="#3eb1c8" stop-opacity="1"></stop></linearGradient></defs><defs><linearGradient id="grad1_1" x1="33.3%" y1="0%" x2="100%" y2="100%"><stop offset="20%" stop-color="#3eb1c8" stop-opacity="1"></stop><stop offset="80%" stop-color="#aad8e3" stop-opacity="1"></stop></linearGradient></defs><defs><linearGradient id="grad1_2" x1="33.3%" y1="0%" x2="100%" y2="100%"><stop offset="20%" stop-color="#ffffff" stop-opacity="1"></stop><stop offset="80%" stop-color="#aad8e3" stop-opacity="1"></stop></linearGradient></defs><defs><linearGradient id="grad2_0" x1="0%" y1="0%" x2="66.7%" y2="100%"><stop offset="20%" stop-color="#3eb1c8" stop-opacity="1"></stop><stop offset="80%" stop-color="#3eb1c8" stop-opacity="1"></stop></linearGradient></defs><defs><linearGradient id="grad2_1" x1="0%" y1="0%" x2="66.7%" y2="100%"><stop offset="20%" stop-color="#aad8e3" stop-opacity="1"></stop><stop offset="80%" stop-color="#3eb1c8" stop-opacity="1"></stop></linearGradient></defs><defs><linearGradient id="grad2_2" x1="0%" y1="0%" x2="66.7%" y2="100%"><stop offset="20%" stop-color="#aad8e3" stop-opacity="1"></stop><stop offset="80%" stop-color="#ffffff" stop-opacity="1"></stop></linearGradient></defs><g transform="translate(900, 0)"><path d="M0 486.7C-52.2 483.4 -104.4 480 -150.4 462.9C-196.4 445.8 -236.3 414.9 -279.8 385.1C-323.3 355.3 -370.6 326.6 -390.8 283.9C-411 241.2 -404.1 184.7 -415.6 135C-427.1 85.4 -456.9 42.7 -486.7 0L0 0Z" fill="#d5ebf1"></path><path d="M0 324.5C-34.8 322.3 -69.6 320 -100.3 308.6C-131 297.2 -157.5 276.6 -186.5 256.7C-215.5 236.9 -247 217.7 -260.5 189.3C-274 160.8 -269.4 123.1 -277.1 90C-284.7 56.9 -304.6 28.5 -324.5 0L0 0Z" fill="#7bc4d6"></path><path d="M0 162.2C-17.4 161.1 -34.8 160 -50.1 154.3C-65.5 148.6 -78.8 138.3 -93.3 128.4C-107.8 118.4 -123.5 108.9 -130.3 94.6C-137 80.4 -134.7 61.6 -138.5 45C-142.4 28.5 -152.3 14.2 -162.2 0L0 0Z" fill="#3eb1c8"></path></g><g transform="translate(0, 600)"><path d="M0 -486.7C39.4 -446.8 78.8 -406.9 129.2 -397.5C179.5 -388.2 240.8 -409.3 286.1 -393.8C331.4 -378.3 360.7 -326.2 383.5 -278.6C406.2 -231.1 422.3 -188.1 438.4 -142.5C454.5 -96.8 470.6 -48.4 486.7 0L0 0Z" fill="#d5ebf1"></path><path d="M0 -324.5C26.3 -297.9 52.5 -271.3 86.1 -265C119.7 -258.8 160.5 -272.9 190.7 -262.5C220.9 -252.2 240.5 -217.4 255.6 -185.7C270.8 -154 281.6 -125.4 292.3 -95C303 -64.5 313.8 -32.3 324.5 0L0 0Z" fill="#7bc4d6"></path><path d="M0 -162.2C13.1 -148.9 26.3 -135.6 43.1 -132.5C59.8 -129.4 80.3 -136.4 95.4 -131.3C110.5 -126.1 120.2 -108.7 127.8 -92.9C135.4 -77 140.8 -62.7 146.1 -47.5C151.5 -32.3 156.9 -16.1 162.2 0L0 0Z" fill="#3eb1c8"></path></g></svg>