<svg width="1040" height="52" viewBox="0 0 1040 52" fill="none" xmlns="http://www.w3.org/2000/svg">
<mask id="mask0_21_489" style="mask-type:alpha" maskUnits="userSpaceOnUse" x="42" y="19" width="955" height="18">
<rect x="42" y="19" width="955" height="18" fill="#D9D9D9"/>
</mask>
<g mask="url(#mask0_21_489)">
<mask id="mask1_21_489" style="mask-type:luminance" maskUnits="userSpaceOnUse" x="38" y="3" width="964" height="46">
<path d="M1001.02 3.75131H38.9973V48.2487H1001.02V3.75131Z" fill="white"/>
</mask>
<g mask="url(#mask1_21_489)">
<path d="M86.935 0.549377L36.1692 51.4507" stroke="#61AFC5" stroke-miterlimit="10"/>
<path d="M95.8438 0.549377L45.0623 51.4507" stroke="#61AFC5" stroke-miterlimit="10"/>
<path d="M104.737 0.549377L53.9709 51.4507" stroke="#61AFC5" stroke-miterlimit="10"/>
<path d="M113.646 0.549377L62.864 51.4507" stroke="#61AFC5" stroke-miterlimit="10"/>
<path d="M51.3313 0.549377L0.549805 51.4507" stroke="#61AFC5" stroke-miterlimit="10"/>
<path d="M60.2243 0.549377L9.4585 51.4507" stroke="#61AFC5" stroke-miterlimit="10"/>
<path d="M69.1333 0.549377L18.3674 51.4507" stroke="#61AFC5" stroke-miterlimit="10"/>
<path d="M78.0263 0.549377L27.2605 51.4507" stroke="#61AFC5" stroke-miterlimit="10"/>
<path d="M122.539 0.549377L71.7727 51.4507" stroke="#61AFC5" stroke-miterlimit="10"/>
<path d="M131.447 0.549377L80.6816 51.4507" stroke="#61AFC5" stroke-miterlimit="10"/>
<path d="M140.341 0.549377L89.5747 51.4507" stroke="#61AFC5" stroke-miterlimit="10"/>
<path d="M149.249 0.549377L98.4834 51.4507" stroke="#61AFC5" stroke-miterlimit="10"/>
<path d="M158.158 0.549377L107.376 51.4507" stroke="#61AFC5" stroke-miterlimit="10"/>
<path d="M167.051 0.549377L116.285 51.4507" stroke="#61AFC5" stroke-miterlimit="10"/>
<path d="M175.96 0.549377L125.178 51.4507" stroke="#61AFC5" stroke-miterlimit="10"/>
<path d="M184.853 0.549377L134.087 51.4507" stroke="#61AFC5" stroke-miterlimit="10"/>
<path d="M193.762 0.549377L142.996 51.4507" stroke="#61AFC5" stroke-miterlimit="10"/>
<path d="M202.655 0.549377L151.889 51.4507" stroke="#61AFC5" stroke-miterlimit="10"/>
<path d="M211.563 0.549377L160.798 51.4507" stroke="#61AFC5" stroke-miterlimit="10"/>
<path d="M220.472 0.549377L169.691 51.4507" stroke="#61AFC5" stroke-miterlimit="10"/>
<path d="M229.365 0.549377L178.599 51.4507" stroke="#61AFC5" stroke-miterlimit="10"/>
<path d="M238.274 0.549377L187.492 51.4507" stroke="#61AFC5" stroke-miterlimit="10"/>
<path d="M247.167 0.549377L196.401 51.4507" stroke="#61AFC5" stroke-miterlimit="10"/>
<path d="M256.076 0.549377L205.31 51.4507" stroke="#61AFC5" stroke-miterlimit="10"/>
<path d="M264.969 0.549377L214.203 51.4507" stroke="#61AFC5" stroke-miterlimit="10"/>
<path d="M273.878 0.549377L223.112 51.4507" stroke="#61AFC5" stroke-miterlimit="10"/>
<path d="M282.786 0.549377L232.005 51.4507" stroke="#61AFC5" stroke-miterlimit="10"/>
<path d="M291.679 0.549377L240.914 51.4507" stroke="#61AFC5" stroke-miterlimit="10"/>
<path d="M300.588 0.549377L249.807 51.4507" stroke="#61AFC5" stroke-miterlimit="10"/>
<path d="M309.481 0.549377L258.715 51.4507" stroke="#61AFC5" stroke-miterlimit="10"/>
<path d="M318.39 0.549377L267.624 51.4507" stroke="#61AFC5" stroke-miterlimit="10"/>
<path d="M327.283 0.549377L276.517 51.4507" stroke="#61AFC5" stroke-miterlimit="10"/>
<path d="M336.192 0.549377L285.426 51.4507" stroke="#61AFC5" stroke-miterlimit="10"/>
<path d="M345.101 0.549377L294.319 51.4507" stroke="#61AFC5" stroke-miterlimit="10"/>
<path d="M353.994 0.549377L303.228 51.4507" stroke="#61AFC5" stroke-miterlimit="10"/>
<path d="M362.902 0.549377L312.121 51.4507" stroke="#61AFC5" stroke-miterlimit="10"/>
<path d="M371.795 0.549377L321.03 51.4507" stroke="#61AFC5" stroke-miterlimit="10"/>
<path d="M380.704 0.549377L329.923 51.4507" stroke="#61AFC5" stroke-miterlimit="10"/>
<path d="M389.597 0.549377L338.832 51.4507" stroke="#61AFC5" stroke-miterlimit="10"/>
<path d="M398.506 0.549377L347.74 51.4507" stroke="#61AFC5" stroke-miterlimit="10"/>
<path d="M407.399 0.549377L356.633 51.4507" stroke="#61AFC5" stroke-miterlimit="10"/>
<path d="M416.308 0.549377L365.542 51.4507" stroke="#61AFC5" stroke-miterlimit="10"/>
<path d="M425.217 0.549377L374.435 51.4507" stroke="#61AFC5" stroke-miterlimit="10"/>
<path d="M434.11 0.549377L383.344 51.4507" stroke="#61AFC5" stroke-miterlimit="10"/>
<path d="M443.018 0.549377L392.237 51.4507" stroke="#61AFC5" stroke-miterlimit="10"/>
<path d="M451.912 0.549377L401.146 51.4507" stroke="#61AFC5" stroke-miterlimit="10"/>
<path d="M460.82 0.549377L410.054 51.4507" stroke="#61AFC5" stroke-miterlimit="10"/>
<path d="M469.713 0.549377L418.948 51.4507" stroke="#61AFC5" stroke-miterlimit="10"/>
<path d="M478.622 0.549377L427.856 51.4507" stroke="#61AFC5" stroke-miterlimit="10"/>
<path d="M487.531 0.549377L436.749 51.4507" stroke="#61AFC5" stroke-miterlimit="10"/>
<path d="M496.424 0.549377L445.658 51.4507" stroke="#61AFC5" stroke-miterlimit="10"/>
<path d="M505.333 0.549377L454.551 51.4507" stroke="#61AFC5" stroke-miterlimit="10"/>
<path d="M514.226 0.549377L463.46 51.4507" stroke="#61AFC5" stroke-miterlimit="10"/>
<path d="M523.134 0.549377L472.369 51.4507" stroke="#61AFC5" stroke-miterlimit="10"/>
<path d="M532.028 0.549377L481.262 51.4507" stroke="#61AFC5" stroke-miterlimit="10"/>
<path d="M540.936 0.549377L490.17 51.4507" stroke="#61AFC5" stroke-miterlimit="10"/>
<path d="M549.845 0.549377L499.063 51.4507" stroke="#61AFC5" stroke-miterlimit="10"/>
<path d="M558.738 0.549377L507.972 51.4507" stroke="#61AFC5" stroke-miterlimit="10"/>
<path d="M567.647 0.549377L516.865 51.4507" stroke="#61AFC5" stroke-miterlimit="10"/>
<path d="M576.54 0.549377L525.774 51.4507" stroke="#61AFC5" stroke-miterlimit="10"/>
<path d="M585.449 0.549377L534.683 51.4507" stroke="#61AFC5" stroke-miterlimit="10"/>
<path d="M594.342 0.549377L543.576 51.4507" stroke="#61AFC5" stroke-miterlimit="10"/>
<path d="M603.25 0.549377L552.485 51.4507" stroke="#61AFC5" stroke-miterlimit="10"/>
<path d="M612.159 0.549377L561.378 51.4507" stroke="#61AFC5" stroke-miterlimit="10"/>
<path d="M621.052 0.549377L570.287 51.4507" stroke="#61AFC5" stroke-miterlimit="10"/>
<path d="M629.961 0.549377L579.179 51.4507" stroke="#61AFC5" stroke-miterlimit="10"/>
<path d="M638.854 0.549377L588.088 51.4507" stroke="#61AFC5" stroke-miterlimit="10"/>
<path d="M647.763 0.549377L596.997 51.4507" stroke="#61AFC5" stroke-miterlimit="10"/>
<path d="M656.656 0.549377L605.89 51.4507" stroke="#61AFC5" stroke-miterlimit="10"/>
<path d="M665.565 0.549377L614.799 51.4507" stroke="#61AFC5" stroke-miterlimit="10"/>
<path d="M674.473 0.549377L623.692 51.4507" stroke="#61AFC5" stroke-miterlimit="10"/>
<path d="M683.366 0.549377L632.601 51.4507" stroke="#61AFC5" stroke-miterlimit="10"/>
<path d="M692.275 0.549377L641.494 51.4507" stroke="#61AFC5" stroke-miterlimit="10"/>
<path d="M701.168 0.549377L650.403 51.4507" stroke="#61AFC5" stroke-miterlimit="10"/>
<path d="M710.077 0.549377L659.311 51.4507" stroke="#61AFC5" stroke-miterlimit="10"/>
<path d="M718.97 0.549377L668.204 51.4507" stroke="#61AFC5" stroke-miterlimit="10"/>
<path d="M727.879 0.549377L677.113 51.4507" stroke="#61AFC5" stroke-miterlimit="10"/>
<path d="M736.788 0.549377L686.006 51.4507" stroke="#61AFC5" stroke-miterlimit="10"/>
<path d="M745.681 0.549377L694.915 51.4507" stroke="#61AFC5" stroke-miterlimit="10"/>
<path d="M754.59 0.549377L703.808 51.4507" stroke="#61AFC5" stroke-miterlimit="10"/>
<path d="M763.482 0.549377L712.717 51.4507" stroke="#61AFC5" stroke-miterlimit="10"/>
<path d="M772.391 0.549377L721.625 51.4507" stroke="#61AFC5" stroke-miterlimit="10"/>
<path d="M781.284 0.549377L730.519 51.4507" stroke="#61AFC5" stroke-miterlimit="10"/>
<path d="M790.193 0.549377L739.427 51.4507" stroke="#61AFC5" stroke-miterlimit="10"/>
<path d="M799.102 0.549377L748.32 51.4507" stroke="#61AFC5" stroke-miterlimit="10"/>
<path d="M807.995 0.549377L757.229 51.4507" stroke="#61AFC5" stroke-miterlimit="10"/>
<path d="M816.904 0.549377L766.122 51.4507" stroke="#61AFC5" stroke-miterlimit="10"/>
<path d="M825.797 0.549377L775.031 51.4507" stroke="#61AFC5" stroke-miterlimit="10"/>
<path d="M834.706 0.549377L783.94 51.4507" stroke="#61AFC5" stroke-miterlimit="10"/>
<path d="M843.599 0.549377L792.833 51.4507" stroke="#61AFC5" stroke-miterlimit="10"/>
<path d="M852.507 0.549377L801.741 51.4507" stroke="#61AFC5" stroke-miterlimit="10"/>
<path d="M861.416 0.549377L810.635 51.4507" stroke="#61AFC5" stroke-miterlimit="10"/>
<path d="M870.309 0.549377L819.543 51.4507" stroke="#61AFC5" stroke-miterlimit="10"/>
<path d="M879.218 0.549377L828.437 51.4507" stroke="#61AFC5" stroke-miterlimit="10"/>
<path d="M888.111 0.549377L837.345 51.4507" stroke="#61AFC5" stroke-miterlimit="10"/>
<path d="M897.02 0.549377L846.254 51.4507" stroke="#61AFC5" stroke-miterlimit="10"/>
<path d="M905.913 0.549377L855.147 51.4507" stroke="#61AFC5" stroke-miterlimit="10"/>
<path d="M914.821 0.549377L864.056 51.4507" stroke="#61AFC5" stroke-miterlimit="10"/>
<path d="M923.73 0.549377L872.949 51.4507" stroke="#61AFC5" stroke-miterlimit="10"/>
<path d="M932.623 0.549377L881.858 51.4507" stroke="#61AFC5" stroke-miterlimit="10"/>
<path d="M941.532 0.549377L890.75 51.4507" stroke="#61AFC5" stroke-miterlimit="10"/>
<path d="M950.425 0.549377L899.66 51.4507" stroke="#61AFC5" stroke-miterlimit="10"/>
<path d="M959.334 0.549377L908.568 51.4507" stroke="#61AFC5" stroke-miterlimit="10"/>
<path d="M968.227 0.549377L917.461 51.4507" stroke="#61AFC5" stroke-miterlimit="10"/>
<path d="M977.136 0.549377L926.37 51.4507" stroke="#61AFC5" stroke-miterlimit="10"/>
<path d="M986.044 0.549377L935.263 51.4507" stroke="#61AFC5" stroke-miterlimit="10"/>
<path d="M994.938 0.549377L944.172 51.4507" stroke="#61AFC5" stroke-miterlimit="10"/>
<path d="M1003.85 0.549377L953.065 51.4507" stroke="#61AFC5" stroke-miterlimit="10"/>
<path d="M1012.74 0.549377L961.974 51.4507" stroke="#61AFC5" stroke-miterlimit="10"/>
<path d="M1021.65 0.549377L970.882 51.4507" stroke="#61AFC5" stroke-miterlimit="10"/>
<path d="M1030.54 0.549377L979.775 51.4507" stroke="#61AFC5" stroke-miterlimit="10"/>
<path d="M1039.45 0.549377L988.684 51.4507" stroke="#61AFC5" stroke-miterlimit="10"/>
</g>
</g>
</svg>
