<?xml version="1.0" standalone="no"?>
<!DOCTYPE svg PUBLIC "-//W3C//DTD SVG 20010904//EN"
 "http://www.w3.org/TR/2001/REC-SVG-20010904/DTD/svg10.dtd">
<svg version="1.0" xmlns="http://www.w3.org/2000/svg"
 width="150.000000pt" height="150.000000pt" viewBox="0 0 150.000000 150.000000"
 preserveAspectRatio="xMidYMid meet">
<metadata>
Created by potrace 1.10, written by Peter Selinger 2001-2011
</metadata>
<g transform="translate(0.000000,150.000000) scale(0.100000,-0.100000)"
fill="#FF0000">
<path d="M200 1105 c-16 -19 -5 -61 24 -94 27 -32 35 -34 119 -37 37 -1 76 -2
86 -3 19 -1 20 -12 23 -265 3 -262 3 -265 26 -284 13 -11 23 -24 23 -29 1 -4
3 -10 6 -13 4 -3 2 1 -2 9 -6 11 -4 13 11 6 37 -15 64 -18 64 -5 0 7 6 10 13
7 9 -3 11 56 9 283 l-3 288 88 4 c109 5 113 7 139 40 11 15 25 24 29 20 5 -4
6 0 3 9 -4 9 -2 22 2 29 6 9 1 20 -12 32 -19 17 -46 18 -328 18 -260 0 -309
-2 -320 -15z m635 -34 c-3 -14 -17 -37 -31 -51 -23 -24 -31 -25 -130 -25
l-105 0 3 -298 c3 -317 5 -309 -46 -286 -52 24 -57 56 -55 329 l1 251 -101 2
c-93 2 -103 4 -125 27 -14 14 -28 36 -31 50 l-6 25 316 1 316 1 -6 -26z"/>
<path d="M918 1109 c-16 -9 -17 -36 -17 -291 0 -154 -2 -282 -4 -284 -1 -2
-44 -5 -95 -7 -85 -3 -94 -5 -121 -31 -35 -33 -49 -80 -30 -102 10 -13 56 -14
320 -12 203 2 305 0 301 -7 -3 -5 4 -1 16 9 26 22 27 37 7 76 -25 49 -75 72
-150 69 -36 -1 -68 0 -71 4 -3 3 -12 3 -20 0 -8 -3 -14 0 -14 6 0 6 3 11 8 11
4 0 7 97 7 215 0 118 -3 215 -8 215 -4 0 -6 12 -5 28 2 35 -28 87 -59 101 -29
13 -43 13 -65 0z m74 -38 l33 -29 -1 -269 -1 -268 104 0 105 0 29 -33 c16 -18
29 -40 29 -50 0 -16 -23 -17 -315 -17 l-316 0 6 25 c3 14 17 36 31 50 23 24
31 25 129 25 l105 0 -2 298 c-3 276 -2 297 14 297 10 0 32 -13 50 -29z"/>
<path d="M748 563 c7 -3 16 -2 19 1 4 3 -2 6 -13 5 -11 0 -14 -3 -6 -6z"/>
</g>
</svg>
